<?xml version="1.0" standalone="no"?>
<!DOCTYPE svg PUBLIC "-//W3C//DTD SVG 20010904//EN"
 "http://www.w3.org/TR/2001/REC-SVG-20010904/DTD/svg10.dtd">
<svg version="1.0" xmlns="http://www.w3.org/2000/svg"
 width="800.000000pt" height="800.000000pt" viewBox="0 0 800.000000 800.000000"
 preserveAspectRatio="xMidYMid meet">
<metadata>
Created by potrace 1.14, written by Peter Selinger 2001-2017
</metadata>
<g transform="translate(0.000000,800.000000) scale(0.100000,-0.100000)"
fill="#000000" stroke="none">
<path d="M3818 7984 c-2 -1 -51 -5 -108 -9 -58 -3 -116 -8 -130 -10 -36 -6
-96 -13 -160 -20 -30 -3 -63 -8 -73 -11 -10 -3 -32 -7 -50 -10 -44 -5 -73 -11
-217 -45 -905 -214 -1712 -743 -2271 -1489 -82 -108 -229 -324 -229 -335 0 -2
-18 -34 -41 -71 -67 -110 -175 -332 -243 -502 -142 -351 -237 -743 -271 -1112
-3 -36 -8 -87 -11 -115 -6 -72 -6 -447 1 -530 14 -176 26 -278 41 -360 2 -10
6 -37 9 -60 8 -60 25 -146 35 -180 5 -16 11 -41 14 -55 78 -403 342 -990 620
-1380 212 -297 444 -548 717 -777 72 -60 247 -192 305 -230 11 -7 42 -27 69
-46 192 -128 477 -275 722 -371 221 -87 470 -158 744 -211 48 -9 225 -34 299
-42 96 -10 734 -10 820 0 133 15 146 17 175 22 17 2 48 7 70 11 22 3 72 12
110 19 39 8 81 16 95 19 117 23 417 109 505 146 11 4 74 29 140 56 166 66 416
188 530 259 198 123 434 288 496 347 8 7 34 29 59 50 295 239 649 658 848
1003 29 50 57 97 62 105 50 80 194 389 241 519 64 176 120 354 144 459 42 183
71 338 81 442 3 30 7 61 10 68 26 81 25 737 -1 912 -2 14 -7 50 -10 80 -4 30
-9 62 -10 71 -2 9 -6 32 -9 50 -68 423 -226 878 -439 1264 -186 338 -396 615
-676 895 -254 254 -455 413 -746 592 -157 97 -378 210 -520 268 -44 18 -95 39
-113 47 -61 27 -326 112 -442 142 -159 40 -313 71 -435 87 -27 3 -57 8 -66 9
-9 2 -52 6 -95 10 -43 3 -97 9 -119 12 -41 6 -472 13 -477 7z"/>
</g>
</svg>
